<svg xmlns="http://www.w3.org/2000/svg" viewBox="0 0 100 100">
  <!-- Arka plan -->
  <circle cx="50" cy="50" r="50" fill="#059669"/>

  <!-- Uzun saç (arkada, omuzlara inen) -->
  <ellipse cx="35" cy="62" rx="10" ry="22" fill="#5c3317"/>
  <ellipse cx="65" cy="62" rx="10" ry="22" fill="#5c3317"/>

  <!-- Gövde / bluz -->
  <ellipse cx="50" cy="98" rx="38" ry="28" fill="#d1fae5"/>
  <!-- Bluz V yaka -->
  <path d="M43,64 L50,74 L57,64" stroke="#a7f3d0" stroke-width="1.5" fill="none"/>

  <!-- Boyun -->
  <path d="M44,57 L44,64 Q50,67 56,64 L56,57" fill="#e8b888"/>

  <!-- Yüz -->
  <ellipse cx="50" cy="42" rx="16" ry="18.5" fill="#f0c8a0"/>
  <!-- Yüz gölge -->
  <ellipse cx="50" cy="52" rx="11" ry="5.5" fill="#e8b888" opacity="0.5"/>

  <!-- Kulaklar -->
  <ellipse cx="34" cy="43" rx="3" ry="4.5" fill="#e8b888"/>
  <ellipse cx="34" cy="43" rx="1.8" ry="2.8" fill="#d4a574" opacity="0.4"/>
  <ellipse cx="66" cy="43" rx="3" ry="4.5" fill="#e8b888"/>
  <ellipse cx="66" cy="43" rx="1.8" ry="2.8" fill="#d4a574" opacity="0.4"/>
  <!-- Küpeler -->
  <circle cx="33.5" cy="48" r="1.5" fill="#34d399"/>
  <circle cx="66.5" cy="48" r="1.5" fill="#34d399"/>

  <!-- Saç üst (kahverengi bob) -->
  <path d="M34,43 C34,22 66,22 66,43 C66,34 60,25 50,25 C40,25 34,34 34,43Z" fill="#5c3317"/>
  <!-- Saç kakül -->
  <path d="M38,35 Q42,29 47,32 Q44,27 50,26 Q47,29 49,33" fill="#6b3a1a" opacity="0.5"/>
  <!-- Saç yan -->
  <path d="M34,38 C33,44 33,52 35,60" stroke="#5c3317" stroke-width="4.5" fill="none" stroke-linecap="round"/>
  <path d="M66,38 C67,44 67,52 65,60" stroke="#5c3317" stroke-width="4.5" fill="none" stroke-linecap="round"/>

  <!-- Kaşlar (ince, kadın) -->
  <path d="M39,37.5 Q42,35.5 46,37" stroke="#3d2010" stroke-width="1.3" fill="none" stroke-linecap="round"/>
  <path d="M54,37 Q58,35.5 61,37.5" stroke="#3d2010" stroke-width="1.3" fill="none" stroke-linecap="round"/>

  <!-- Gözler -->
  <ellipse cx="43" cy="41" rx="3" ry="3.2" fill="#fff"/>
  <ellipse cx="57" cy="41" rx="3" ry="3.2" fill="#fff"/>
  <!-- Kirpikler -->
  <path d="M40,38.5 Q41,37.5 42,38" stroke="#3d2010" stroke-width="0.8" fill="none"/>
  <path d="M44,38 Q45,37 46,38" stroke="#3d2010" stroke-width="0.8" fill="none"/>
  <path d="M54,38 Q55,37 56,38" stroke="#3d2010" stroke-width="0.8" fill="none"/>
  <path d="M58,38 Q59,37.5 60,38.5" stroke="#3d2010" stroke-width="0.8" fill="none"/>
  <!-- İris -->
  <circle cx="43.5" cy="41.2" r="2" fill="#3d2010"/>
  <circle cx="57.5" cy="41.2" r="2" fill="#3d2010"/>
  <!-- Göz bebeği -->
  <circle cx="43.5" cy="41.2" r="1" fill="#1a0a05"/>
  <circle cx="57.5" cy="41.2" r="1" fill="#1a0a05"/>
  <!-- Göz parlaması -->
  <circle cx="44.3" cy="40.3" r="0.7" fill="#fff"/>
  <circle cx="58.3" cy="40.3" r="0.7" fill="#fff"/>

  <!-- Burun -->
  <path d="M48,44 Q50,48 52,44" stroke="#c89468" stroke-width="1.2" fill="none" stroke-linecap="round"/>

  <!-- Ağız -->
  <path d="M43.5,50.5 Q50,55 56.5,50.5" stroke="#b06050" stroke-width="1.4" fill="none" stroke-linecap="round"/>
  <path d="M44.5,51 Q50,54.5 55.5,51" fill="#c47a60" opacity="0.3"/>
  <path d="M45,50.5 Q50,49 55,50.5" stroke="#b06850" stroke-width="0.7" fill="none"/>
</svg>
