<svg xmlns="http://www.w3.org/2000/svg" viewBox="0 0 100 100">
  <!-- Erkek Memur - Yeşil arka plan, açık mavi gömlek -->
  <circle cx="50" cy="50" r="50" fill="#15803d"/>
  <!-- Gömlek -->
  <ellipse cx="50" cy="95" rx="33" ry="24" fill="#1e40af"/>
  <!-- Sol yaka -->
  <polygon points="46,60 34,76 50,73" fill="#dbeafe"/>
  <!-- Sağ yaka -->
  <polygon points="54,60 66,76 50,73" fill="#bfdbfe"/>
  <!-- Boyun -->
  <rect x="46" y="55" width="8" height="10" rx="2" fill="#fcd9b0"/>
  <!-- Yüz -->
  <circle cx="50" cy="41" r="16" fill="#fcd9b0"/>
  <!-- Kısa saç - kahverengi -->
  <path d="M34,41 C34,24 66,24 66,41 C63,32 56,26 50,26 C44,26 37,32 34,41Z" fill="#5c3317"/>
  <!-- Gözler -->
  <circle cx="44" cy="40" r="2.2" fill="#1a0a00"/>
  <circle cx="56" cy="40" r="2.2" fill="#1a0a00"/>
  <circle cx="44.8" cy="39.3" r="0.7" fill="#fff"/>
  <circle cx="56.8" cy="39.3" r="0.7" fill="#fff"/>
  <!-- Kaşlar -->
  <path d="M40,36 Q44,34 48,36" stroke="#3d2b1f" stroke-width="1.8" fill="none" stroke-linecap="round"/>
  <path d="M52,36 Q56,34 60,36" stroke="#3d2b1f" stroke-width="1.8" fill="none" stroke-linecap="round"/>
  <!-- Ağız -->
  <path d="M44,49 Q50,54 56,49" stroke="#b07050" stroke-width="1.8" fill="none" stroke-linecap="round"/>
</svg>
