<svg xmlns="http://www.w3.org/2000/svg" viewBox="0 0 100 100">
  <!-- Arka plan -->
  <circle cx="50" cy="50" r="50" fill="#dc2626"/>

  <!-- Ceket -->
  <ellipse cx="50" cy="98" rx="40" ry="30" fill="#1e293b"/>
  <!-- Beyaz gömlek -->
  <polygon points="50,64 44,78 56,78" fill="#f8fafc"/>
  <!-- Sol yaka -->
  <polygon points="43,63 33,84 50,80" fill="#1e293b"/>
  <!-- Sağ yaka -->
  <polygon points="57,63 67,84 50,80" fill="#0f172a"/>
  <!-- Kravat -->
  <polygon points="50,65 47.5,70 50,88 52.5,70" fill="#dc2626"/>
  <!-- Kravat düğüm -->
  <ellipse cx="50" cy="67" rx="3" ry="2" fill="#b91c1c"/>

  <!-- Boyun -->
  <path d="M44,57 L44,64 Q50,67 56,64 L56,57" fill="#e8b888"/>

  <!-- Yüz -->
  <ellipse cx="50" cy="42" rx="17" ry="19" fill="#f0c8a0"/>
  <!-- Yüz gölge -->
  <ellipse cx="50" cy="52" rx="12" ry="6" fill="#e8b888" opacity="0.5"/>

  <!-- Kulaklar -->
  <ellipse cx="33" cy="43" rx="3.5" ry="5" fill="#e8b888"/>
  <ellipse cx="33" cy="43" rx="2" ry="3" fill="#d4a574" opacity="0.4"/>
  <ellipse cx="67" cy="43" rx="3.5" ry="5" fill="#e8b888"/>
  <ellipse cx="67" cy="43" rx="2" ry="3" fill="#d4a574" opacity="0.4"/>

  <!-- Saç (koyu, yana taralı) -->
  <path d="M33,42 C33,21 67,21 67,42 C67,33 60,25 50,25 C40,25 33,33 33,42Z" fill="#2d1b0e"/>
  <!-- Saç ayrımı (sol taraf) -->
  <path d="M40,26 Q42,31 41,37" stroke="#1a0f06" stroke-width="1.2" fill="none" opacity="0.5"/>
  <!-- Saç yan -->
  <path d="M33,38 C33,36 34,33 36,31" stroke="#2d1b0e" stroke-width="3" fill="none" stroke-linecap="round"/>
  <path d="M67,38 C67,36 66,33 64,31" stroke="#2d1b0e" stroke-width="3" fill="none" stroke-linecap="round"/>

  <!-- Kaşlar -->
  <path d="M39,37 Q42,34.5 46,36.5" stroke="#2d1b0e" stroke-width="1.8" fill="none" stroke-linecap="round"/>
  <path d="M54,36.5 Q58,34.5 61,37" stroke="#2d1b0e" stroke-width="1.8" fill="none" stroke-linecap="round"/>

  <!-- Gözler -->
  <ellipse cx="43" cy="41" rx="3" ry="3.2" fill="#fff"/>
  <ellipse cx="57" cy="41" rx="3" ry="3.2" fill="#fff"/>
  <!-- İris -->
  <circle cx="43.5" cy="41.2" r="2" fill="#2d1b0e"/>
  <circle cx="57.5" cy="41.2" r="2" fill="#2d1b0e"/>
  <!-- Göz bebeği -->
  <circle cx="43.5" cy="41.2" r="1" fill="#0f0a05"/>
  <circle cx="57.5" cy="41.2" r="1" fill="#0f0a05"/>
  <!-- Göz parlaması -->
  <circle cx="44.3" cy="40.3" r="0.7" fill="#fff"/>
  <circle cx="58.3" cy="40.3" r="0.7" fill="#fff"/>

  <!-- Burun -->
  <path d="M48,44 Q50,48.5 52,44" stroke="#c89468" stroke-width="1.3" fill="none" stroke-linecap="round"/>

  <!-- Ağız -->
  <path d="M44,50.5 Q50,54.5 56,50.5" stroke="#a0604a" stroke-width="1.4" fill="none" stroke-linecap="round"/>
  <path d="M45,51 Q50,54 55,51" fill="#c47a60" opacity="0.3"/>
  <path d="M45.5,50.5 Q50,49 54.5,50.5" stroke="#b06850" stroke-width="0.7" fill="none"/>

  <!-- Gülümseme çukurları -->
  <path d="M41,49 Q42,51 42.5,50" stroke="#c89468" stroke-width="0.7" fill="none" opacity="0.5"/>
  <path d="M59,49 Q58,51 57.5,50" stroke="#c89468" stroke-width="0.7" fill="none" opacity="0.5"/>
</svg>
