<svg xmlns="http://www.w3.org/2000/svg" viewBox="0 0 100 100">
  <!-- Arka plan -->
  <circle cx="50" cy="50" r="50" fill="#334155"/>

  <!-- Gövde / blazer -->
  <ellipse cx="50" cy="98" rx="40" ry="30" fill="#1e293b"/>
  <!-- Beyaz bluz -->
  <polygon points="50,64 44,78 56,78" fill="#f1f5f9"/>
  <!-- Sol yaka -->
  <polygon points="43,63 33,84 50,80" fill="#1e293b"/>
  <!-- Sağ yaka -->
  <polygon points="57,63 67,84 50,80" fill="#0f172a"/>

  <!-- Boyun -->
  <path d="M44,57 L44,64 Q50,67 56,64 L56,57" fill="#e8b888"/>

  <!-- Yüz -->
  <ellipse cx="50" cy="42" rx="16" ry="18.5" fill="#f0c8a0"/>
  <!-- Yüz gölge -->
  <ellipse cx="50" cy="52" rx="11" ry="5.5" fill="#e8b888" opacity="0.5"/>

  <!-- Kulaklar -->
  <ellipse cx="34" cy="43" rx="3" ry="4.5" fill="#e8b888"/>
  <ellipse cx="34" cy="43" rx="1.8" ry="2.8" fill="#d4a574" opacity="0.4"/>
  <ellipse cx="66" cy="43" rx="3" ry="4.5" fill="#e8b888"/>
  <ellipse cx="66" cy="43" rx="1.8" ry="2.8" fill="#d4a574" opacity="0.4"/>
  <!-- Küpeler -->
  <circle cx="33.5" cy="48" r="1.5" fill="#94a3b8"/>
  <circle cx="66.5" cy="48" r="1.5" fill="#94a3b8"/>

  <!-- Saç (koyu, topuz) -->
  <path d="M34,43 C34,22 66,22 66,43 C66,34 60,25 50,25 C40,25 34,34 34,43Z" fill="#1a1a2e"/>
  <!-- Topuz -->
  <circle cx="50" cy="20" r="8" fill="#1a1a2e"/>
  <ellipse cx="50" cy="24" rx="8" ry="5" fill="#252540"/>
  <!-- Topuz tokası -->
  <ellipse cx="50" cy="20" rx="3.5" ry="1.5" fill="#334155" opacity="0.5"/>
  <!-- Saç yan -->
  <path d="M34,38 C34,36 35,33 37,31" stroke="#1a1a2e" stroke-width="2.5" fill="none" stroke-linecap="round"/>
  <path d="M66,38 C66,36 65,33 63,31" stroke="#1a1a2e" stroke-width="2.5" fill="none" stroke-linecap="round"/>

  <!-- Kaşlar (ince, kadın) -->
  <path d="M39,37.5 Q42,35.5 46,37" stroke="#1a1a2e" stroke-width="1.3" fill="none" stroke-linecap="round"/>
  <path d="M54,37 Q58,35.5 61,37.5" stroke="#1a1a2e" stroke-width="1.3" fill="none" stroke-linecap="round"/>

  <!-- Gözler -->
  <ellipse cx="43" cy="41" rx="3" ry="3.2" fill="#fff"/>
  <ellipse cx="57" cy="41" rx="3" ry="3.2" fill="#fff"/>
  <!-- Kirpikler -->
  <path d="M40,38.5 Q41,37.5 42,38" stroke="#1a1a2e" stroke-width="0.8" fill="none"/>
  <path d="M44,38 Q45,37 46,38" stroke="#1a1a2e" stroke-width="0.8" fill="none"/>
  <path d="M54,38 Q55,37 56,38" stroke="#1a1a2e" stroke-width="0.8" fill="none"/>
  <path d="M58,38 Q59,37.5 60,38.5" stroke="#1a1a2e" stroke-width="0.8" fill="none"/>
  <!-- İris -->
  <circle cx="43.5" cy="41.2" r="2" fill="#1a1a2e"/>
  <circle cx="57.5" cy="41.2" r="2" fill="#1a1a2e"/>
  <!-- Göz bebeği -->
  <circle cx="43.5" cy="41.2" r="1" fill="#0a0a15"/>
  <circle cx="57.5" cy="41.2" r="1" fill="#0a0a15"/>
  <!-- Göz parlaması -->
  <circle cx="44.3" cy="40.3" r="0.7" fill="#fff"/>
  <circle cx="58.3" cy="40.3" r="0.7" fill="#fff"/>

  <!-- Burun -->
  <path d="M48,44 Q50,48 52,44" stroke="#c89468" stroke-width="1.2" fill="none" stroke-linecap="round"/>

  <!-- Ağız -->
  <path d="M43.5,50.5 Q50,55 56.5,50.5" stroke="#b06050" stroke-width="1.4" fill="none" stroke-linecap="round"/>
  <path d="M44.5,51 Q50,54.5 55.5,51" fill="#c47a60" opacity="0.3"/>
  <path d="M45,50.5 Q50,49 55,50.5" stroke="#b06850" stroke-width="0.7" fill="none"/>

  <!-- Gülümseme çukurları -->
  <path d="M41,49 Q42,51 42.5,50" stroke="#c89468" stroke-width="0.7" fill="none" opacity="0.5"/>
  <path d="M59,49 Q58,51 57.5,50" stroke="#c89468" stroke-width="0.7" fill="none" opacity="0.5"/>
</svg>
